<?xml version="1.0" encoding="utf-8"?>
<!-- Generator: Adobe Illustrator 27.2.0, SVG Export Plug-In . SVG Version: 6.00 Build 0)  -->
<svg version="1.1" id="Layer_2" xmlns="http://www.w3.org/2000/svg" xmlns:xlink="http://www.w3.org/1999/xlink" x="0px" y="0px"
	 viewBox="0 0 600 600" style="enable-background:new 0 0 600 600;" xml:space="preserve">
<style type="text/css">
	.st0{stroke:#000000;stroke-miterlimit:10;}
</style>
<g>
	<polygon class="st0" points="172.73,149.24 248.11,149.24 97.35,450.76 19.03,450.76 	"/>
	<polygon class="st0" points="268.84,234.41 350.91,234.41 396.92,149.24 318.6,149.24 	"/>
	<polygon class="st0" points="372.44,220.7 409.72,149.24 580.97,149.24 544.75,220.7 	"/>
	<polygon class="st0" points="180.56,312.73 310.77,312.73 346.99,246.16 214.83,246.16 	"/>
	<polygon class="st0" points="324.47,312.73 358.74,246.16 496.78,246.16 462.51,312.73 	"/>
	<path class="st0" d="M231.47,325.45h76.36l-18.88,33.87c-6.46,11.59,1.92,25.85,15.19,25.85h47.75l-33.29,65.59H214.44
		c-21.34,0-35.17-22.53-25.5-41.55L231.47,325.45z"/>
</g>
</svg>
